G04 PROTEUS GERBER X2 FILE*
%TF.GenerationSoftware,Labcenter,Proteus,8.6-SP2-Build23525*%
%TF.CreationDate,2021-11-18T02:18:18+00:00*%
%TF.FileFunction,Legend,Top*%
%TF.FilePolarity,Positive*%
%TF.Part,Single*%
%FSLAX45Y45*%
%MOMM*%
G01*
%TA.AperFunction,Material*%
%ADD71C,0.000010*%
%ADD20C,0.203200*%
%ADD21C,0.120000*%
%ADD22C,0.200000*%
%TA.AperFunction,Profile*%
%ADD17C,0.203200*%
%TD.AperFunction*%
D71*
X-3470800Y+1103200D02*
X-3369200Y+1103200D01*
X-3369200Y+1204800D01*
X-3470800Y+1204800D01*
X-3470800Y+1103200D01*
X-3420000Y+1255600D02*
X-3420000Y+1052400D01*
X-3318400Y+1154000D02*
X-3521600Y+1154000D01*
X-6050800Y+1101200D02*
X-5949200Y+1101200D01*
X-5949200Y+1202800D01*
X-6050800Y+1202800D01*
X-6050800Y+1101200D01*
X-6000000Y+1253600D02*
X-6000000Y+1050400D01*
X-5898400Y+1152000D02*
X-6101600Y+1152000D01*
D20*
X-5504750Y+2888080D02*
X-5600000Y+2888080D01*
X-5600000Y+2979520D01*
X-5504750Y+2979520D01*
X-5600000Y+2933800D02*
X-5536500Y+2933800D01*
X-5473000Y+2888080D02*
X-5473000Y+2979520D01*
X-5377750Y+2888080D01*
X-5377750Y+2979520D01*
X-5590000Y+2699520D02*
X-5590000Y+2653800D01*
X-5542375Y+2608080D01*
X-5494750Y+2653800D01*
X-5494750Y+2699520D01*
X-5463000Y+2608080D02*
X-5463000Y+2699520D01*
X-5383625Y+2699520D01*
X-5367750Y+2684280D01*
X-5367750Y+2669040D01*
X-5383625Y+2653800D01*
X-5463000Y+2653800D01*
X-5590000Y+2449520D02*
X-5590000Y+2403800D01*
X-5542375Y+2358080D01*
X-5494750Y+2403800D01*
X-5494750Y+2449520D01*
X-5463000Y+2358080D02*
X-5463000Y+2449520D01*
X-5367750Y+2358080D01*
X-5367750Y+2449520D01*
X-5574125Y+2184280D02*
X-5558250Y+2199520D01*
X-5510625Y+2199520D01*
X-5494750Y+2184280D01*
X-5494750Y+2169040D01*
X-5510625Y+2153800D01*
X-5494750Y+2138560D01*
X-5494750Y+2123320D01*
X-5510625Y+2108080D01*
X-5558250Y+2108080D01*
X-5574125Y+2123320D01*
X-5542375Y+2153800D02*
X-5510625Y+2153800D01*
X-5367750Y+2138560D02*
X-5463000Y+2138560D01*
X-5399500Y+2199520D01*
X-5399500Y+2108080D01*
X-5574125Y+1934280D02*
X-5558250Y+1949520D01*
X-5510625Y+1949520D01*
X-5494750Y+1934280D01*
X-5494750Y+1919040D01*
X-5510625Y+1903800D01*
X-5494750Y+1888560D01*
X-5494750Y+1873320D01*
X-5510625Y+1858080D01*
X-5558250Y+1858080D01*
X-5574125Y+1873320D01*
X-5542375Y+1903800D02*
X-5510625Y+1903800D01*
X-5367750Y+1949520D02*
X-5447125Y+1949520D01*
X-5447125Y+1919040D01*
X-5383625Y+1919040D01*
X-5367750Y+1903800D01*
X-5367750Y+1873320D01*
X-5383625Y+1858080D01*
X-5431250Y+1858080D01*
X-5447125Y+1873320D01*
X-5574125Y+1684280D02*
X-5558250Y+1699520D01*
X-5510625Y+1699520D01*
X-5494750Y+1684280D01*
X-5494750Y+1669040D01*
X-5510625Y+1653800D01*
X-5494750Y+1638560D01*
X-5494750Y+1623320D01*
X-5510625Y+1608080D01*
X-5558250Y+1608080D01*
X-5574125Y+1623320D01*
X-5542375Y+1653800D02*
X-5510625Y+1653800D01*
X-5447125Y+1684280D02*
X-5431250Y+1699520D01*
X-5383625Y+1699520D01*
X-5367750Y+1684280D01*
X-5367750Y+1669040D01*
X-5383625Y+1653800D01*
X-5431250Y+1653800D01*
X-5447125Y+1638560D01*
X-5447125Y+1608080D01*
X-5367750Y+1608080D01*
X-5574125Y+1434280D02*
X-5558250Y+1449520D01*
X-5510625Y+1449520D01*
X-5494750Y+1434280D01*
X-5494750Y+1419040D01*
X-5510625Y+1403800D01*
X-5494750Y+1388560D01*
X-5494750Y+1373320D01*
X-5510625Y+1358080D01*
X-5558250Y+1358080D01*
X-5574125Y+1373320D01*
X-5542375Y+1403800D02*
X-5510625Y+1403800D01*
X-5447125Y+1434280D02*
X-5431250Y+1449520D01*
X-5383625Y+1449520D01*
X-5367750Y+1434280D01*
X-5367750Y+1419040D01*
X-5383625Y+1403800D01*
X-5367750Y+1388560D01*
X-5367750Y+1373320D01*
X-5383625Y+1358080D01*
X-5431250Y+1358080D01*
X-5447125Y+1373320D01*
X-5415375Y+1403800D02*
X-5383625Y+1403800D01*
X-5574125Y+1184280D02*
X-5558250Y+1199520D01*
X-5510625Y+1199520D01*
X-5494750Y+1184280D01*
X-5494750Y+1169040D01*
X-5510625Y+1153800D01*
X-5558250Y+1153800D01*
X-5574125Y+1138560D01*
X-5574125Y+1108080D01*
X-5494750Y+1108080D01*
X-5367750Y+1199520D02*
X-5447125Y+1199520D01*
X-5447125Y+1169040D01*
X-5383625Y+1169040D01*
X-5367750Y+1153800D01*
X-5367750Y+1123320D01*
X-5383625Y+1108080D01*
X-5431250Y+1108080D01*
X-5447125Y+1123320D01*
X-5574125Y+934280D02*
X-5558250Y+949520D01*
X-5510625Y+949520D01*
X-5494750Y+934280D01*
X-5494750Y+919040D01*
X-5510625Y+903800D01*
X-5558250Y+903800D01*
X-5574125Y+888560D01*
X-5574125Y+858080D01*
X-5494750Y+858080D01*
X-5367750Y+934280D02*
X-5383625Y+949520D01*
X-5431250Y+949520D01*
X-5447125Y+934280D01*
X-5447125Y+873320D01*
X-5431250Y+858080D01*
X-5383625Y+858080D01*
X-5367750Y+873320D01*
X-5367750Y+888560D01*
X-5383625Y+903800D01*
X-5447125Y+903800D01*
X-5574125Y+684280D02*
X-5558250Y+699520D01*
X-5510625Y+699520D01*
X-5494750Y+684280D01*
X-5494750Y+669040D01*
X-5510625Y+653800D01*
X-5558250Y+653800D01*
X-5574125Y+638560D01*
X-5574125Y+608080D01*
X-5494750Y+608080D01*
X-5447125Y+699520D02*
X-5367750Y+699520D01*
X-5367750Y+684280D01*
X-5447125Y+608080D01*
X-5558250Y+419040D02*
X-5526500Y+449520D01*
X-5526500Y+358080D01*
X-5367750Y+388560D02*
X-5463000Y+388560D01*
X-5399500Y+449520D01*
X-5399500Y+358080D01*
X-5558250Y+169040D02*
X-5526500Y+199520D01*
X-5526500Y+108080D01*
X-5447125Y+184280D02*
X-5431250Y+199520D01*
X-5383625Y+199520D01*
X-5367750Y+184280D01*
X-5367750Y+169040D01*
X-5383625Y+153800D01*
X-5431250Y+153800D01*
X-5447125Y+138560D01*
X-5447125Y+108080D01*
X-5367750Y+108080D01*
X-5558250Y-80960D02*
X-5526500Y-50480D01*
X-5526500Y-141920D01*
X-5447125Y-65720D02*
X-5431250Y-50480D01*
X-5383625Y-50480D01*
X-5367750Y-65720D01*
X-5367750Y-80960D01*
X-5383625Y-96200D01*
X-5367750Y-111440D01*
X-5367750Y-126680D01*
X-5383625Y-141920D01*
X-5431250Y-141920D01*
X-5447125Y-126680D01*
X-5415375Y-96200D02*
X-5383625Y-96200D01*
X-5526500Y-361440D02*
X-5494750Y-361440D01*
X-5494750Y-391920D01*
X-5558250Y-391920D01*
X-5590000Y-361440D01*
X-5590000Y-330960D01*
X-5558250Y-300480D01*
X-5510625Y-300480D01*
X-5494750Y-315720D01*
X-5463000Y-391920D02*
X-5463000Y-300480D01*
X-5367750Y-391920D01*
X-5367750Y-300480D01*
X-5336000Y-391920D02*
X-5336000Y-300480D01*
X-5272500Y-300480D01*
X-5240750Y-330960D01*
X-5240750Y-361440D01*
X-5272500Y-391920D01*
X-5336000Y-391920D01*
X-5590000Y-600480D02*
X-5590000Y-646200D01*
X-5542375Y-691920D01*
X-5494750Y-646200D01*
X-5494750Y-600480D01*
X-5447125Y-600480D02*
X-5383625Y-600480D01*
X-5415375Y-600480D02*
X-5415375Y-691920D01*
X-5447125Y-691920D02*
X-5383625Y-691920D01*
X-5336000Y-691920D02*
X-5336000Y-600480D01*
X-5240750Y-691920D01*
X-5240750Y-600480D01*
X-4134125Y+2958280D02*
X-4118250Y+2973520D01*
X-4070625Y+2973520D01*
X-4054750Y+2958280D01*
X-4054750Y+2943040D01*
X-4070625Y+2927800D01*
X-4118250Y+2927800D01*
X-4134125Y+2912560D01*
X-4134125Y+2882080D01*
X-4054750Y+2882080D01*
X-4007125Y+2958280D02*
X-3991250Y+2973520D01*
X-3943625Y+2973520D01*
X-3927750Y+2958280D01*
X-3927750Y+2943040D01*
X-3943625Y+2927800D01*
X-3927750Y+2912560D01*
X-3927750Y+2897320D01*
X-3943625Y+2882080D01*
X-3991250Y+2882080D01*
X-4007125Y+2897320D01*
X-3975375Y+2927800D02*
X-3943625Y+2927800D01*
X-4124125Y+2678280D02*
X-4108250Y+2693520D01*
X-4060625Y+2693520D01*
X-4044750Y+2678280D01*
X-4044750Y+2663040D01*
X-4060625Y+2647800D01*
X-4108250Y+2647800D01*
X-4124125Y+2632560D01*
X-4124125Y+2602080D01*
X-4044750Y+2602080D01*
X-3997125Y+2678280D02*
X-3981250Y+2693520D01*
X-3933625Y+2693520D01*
X-3917750Y+2678280D01*
X-3917750Y+2663040D01*
X-3933625Y+2647800D01*
X-3981250Y+2647800D01*
X-3997125Y+2632560D01*
X-3997125Y+2602080D01*
X-3917750Y+2602080D01*
X-4140000Y+2443520D02*
X-4044750Y+2443520D01*
X-4092375Y+2443520D02*
X-4092375Y+2352080D01*
X-4013000Y+2443520D02*
X-3917750Y+2352080D01*
X-4013000Y+2352080D02*
X-3917750Y+2443520D01*
X-4140000Y+2102080D02*
X-4140000Y+2193520D01*
X-4060625Y+2193520D01*
X-4044750Y+2178280D01*
X-4044750Y+2163040D01*
X-4060625Y+2147800D01*
X-4140000Y+2147800D01*
X-4060625Y+2147800D02*
X-4044750Y+2132560D01*
X-4044750Y+2102080D01*
X-4013000Y+2193520D02*
X-3917750Y+2102080D01*
X-4013000Y+2102080D02*
X-3917750Y+2193520D01*
X-4124125Y+1928280D02*
X-4108250Y+1943520D01*
X-4060625Y+1943520D01*
X-4044750Y+1928280D01*
X-4044750Y+1913040D01*
X-4060625Y+1897800D01*
X-4108250Y+1897800D01*
X-4124125Y+1882560D01*
X-4124125Y+1852080D01*
X-4044750Y+1852080D01*
X-3981250Y+1913040D02*
X-3949500Y+1943520D01*
X-3949500Y+1852080D01*
X-4108250Y+1663040D02*
X-4076500Y+1693520D01*
X-4076500Y+1602080D01*
X-3917750Y+1663040D02*
X-3933625Y+1647800D01*
X-3981250Y+1647800D01*
X-3997125Y+1663040D01*
X-3997125Y+1678280D01*
X-3981250Y+1693520D01*
X-3933625Y+1693520D01*
X-3917750Y+1678280D01*
X-3917750Y+1617320D01*
X-3933625Y+1602080D01*
X-3981250Y+1602080D01*
X-4108250Y+1413040D02*
X-4076500Y+1443520D01*
X-4076500Y+1352080D01*
X-3981250Y+1397800D02*
X-3997125Y+1413040D01*
X-3997125Y+1428280D01*
X-3981250Y+1443520D01*
X-3933625Y+1443520D01*
X-3917750Y+1428280D01*
X-3917750Y+1413040D01*
X-3933625Y+1397800D01*
X-3981250Y+1397800D01*
X-3997125Y+1382560D01*
X-3997125Y+1367320D01*
X-3981250Y+1352080D01*
X-3933625Y+1352080D01*
X-3917750Y+1367320D01*
X-3917750Y+1382560D01*
X-3933625Y+1397800D01*
X-4140000Y+1117320D02*
X-4140000Y+1178280D01*
X-4124125Y+1193520D01*
X-4060625Y+1193520D01*
X-4044750Y+1178280D01*
X-4044750Y+1117320D01*
X-4060625Y+1102080D01*
X-4124125Y+1102080D01*
X-4140000Y+1117320D01*
X-4140000Y+1102080D02*
X-4044750Y+1193520D01*
X-3917750Y+1193520D02*
X-3997125Y+1193520D01*
X-3997125Y+1163040D01*
X-3933625Y+1163040D01*
X-3917750Y+1147800D01*
X-3917750Y+1117320D01*
X-3933625Y+1102080D01*
X-3981250Y+1102080D01*
X-3997125Y+1117320D01*
X-4140000Y+943520D02*
X-4044750Y+943520D01*
X-4092375Y+943520D02*
X-4092375Y+852080D01*
X-4013000Y+943520D02*
X-3917750Y+852080D01*
X-4013000Y+852080D02*
X-3917750Y+943520D01*
X-4140000Y+602080D02*
X-4140000Y+693520D01*
X-4060625Y+693520D01*
X-4044750Y+678280D01*
X-4044750Y+663040D01*
X-4060625Y+647800D01*
X-4140000Y+647800D01*
X-4060625Y+647800D02*
X-4044750Y+632560D01*
X-4044750Y+602080D01*
X-4013000Y+693520D02*
X-3917750Y+602080D01*
X-4013000Y+602080D02*
X-3917750Y+693520D01*
X-4140000Y+367320D02*
X-4140000Y+428280D01*
X-4124125Y+443520D01*
X-4060625Y+443520D01*
X-4044750Y+428280D01*
X-4044750Y+367320D01*
X-4060625Y+352080D01*
X-4124125Y+352080D01*
X-4140000Y+367320D01*
X-4140000Y+352080D02*
X-4044750Y+443520D01*
X-3917750Y+382560D02*
X-4013000Y+382560D01*
X-3949500Y+443520D01*
X-3949500Y+352080D01*
X-4140000Y+117320D02*
X-4140000Y+178280D01*
X-4124125Y+193520D01*
X-4060625Y+193520D01*
X-4044750Y+178280D01*
X-4044750Y+117320D01*
X-4060625Y+102080D01*
X-4124125Y+102080D01*
X-4140000Y+117320D01*
X-4140000Y+102080D02*
X-4044750Y+193520D01*
X-3997125Y+178280D02*
X-3981250Y+193520D01*
X-3933625Y+193520D01*
X-3917750Y+178280D01*
X-3917750Y+163040D01*
X-3933625Y+147800D01*
X-3981250Y+147800D01*
X-3997125Y+132560D01*
X-3997125Y+102080D01*
X-3917750Y+102080D01*
X-4108250Y-86960D02*
X-4076500Y-56480D01*
X-4076500Y-147920D01*
X-3917750Y-56480D02*
X-3997125Y-56480D01*
X-3997125Y-86960D01*
X-3933625Y-86960D01*
X-3917750Y-102200D01*
X-3917750Y-132680D01*
X-3933625Y-147920D01*
X-3981250Y-147920D01*
X-3997125Y-132680D01*
X-4076500Y-367440D02*
X-4044750Y-367440D01*
X-4044750Y-397920D01*
X-4108250Y-397920D01*
X-4140000Y-367440D01*
X-4140000Y-336960D01*
X-4108250Y-306480D01*
X-4060625Y-306480D01*
X-4044750Y-321720D01*
X-4013000Y-397920D02*
X-4013000Y-306480D01*
X-3917750Y-397920D01*
X-3917750Y-306480D01*
X-3886000Y-397920D02*
X-3886000Y-306480D01*
X-3822500Y-306480D01*
X-3790750Y-336960D01*
X-3790750Y-367440D01*
X-3822500Y-397920D01*
X-3886000Y-397920D01*
X-4124125Y-621720D02*
X-4108250Y-606480D01*
X-4060625Y-606480D01*
X-4044750Y-621720D01*
X-4044750Y-636960D01*
X-4060625Y-652200D01*
X-4044750Y-667440D01*
X-4044750Y-682680D01*
X-4060625Y-697920D01*
X-4108250Y-697920D01*
X-4124125Y-682680D01*
X-4092375Y-652200D02*
X-4060625Y-652200D01*
X-4013000Y-606480D02*
X-4013000Y-652200D01*
X-3965375Y-697920D01*
X-3917750Y-652200D01*
X-3917750Y-606480D01*
X-3870125Y-621720D02*
X-3854250Y-606480D01*
X-3806625Y-606480D01*
X-3790750Y-621720D01*
X-3790750Y-636960D01*
X-3806625Y-652200D01*
X-3790750Y-667440D01*
X-3790750Y-682680D01*
X-3806625Y-697920D01*
X-3854250Y-697920D01*
X-3870125Y-682680D01*
X-3838375Y-652200D02*
X-3806625Y-652200D01*
X-6350000Y-840000D02*
X-5850000Y-840000D01*
X-5850000Y+3160000D01*
X-6350000Y+3160000D01*
X-6350000Y-840000D01*
X-3750000Y-846000D02*
X-3240000Y-846000D01*
X-3240000Y+3154000D01*
X-3750000Y+3154000D01*
X-3750000Y-846000D01*
X-6382000Y+3749000D02*
X-5366000Y+3749000D01*
X-5366000Y+4384000D01*
X-6382000Y+4384000D01*
X-6382000Y+3749000D01*
X-5366000Y+3876000D02*
X-6382000Y+3876000D01*
X-5937500Y+3708360D02*
X-5937500Y+3662640D01*
X-5889875Y+3616920D01*
X-5842250Y+3662640D01*
X-5842250Y+3708360D01*
X-7998000Y+3749000D02*
X-7236000Y+3749000D01*
X-7236000Y+4384000D01*
X-7998000Y+4384000D01*
X-7998000Y+3749000D01*
X-7236000Y+3876000D02*
X-7998000Y+3876000D01*
X-7585250Y+3632160D02*
X-7601125Y+3616920D01*
X-7648750Y+3616920D01*
X-7680500Y+3647400D01*
X-7680500Y+3677880D01*
X-7648750Y+3708360D01*
X-7601125Y+3708360D01*
X-7585250Y+3693120D01*
X-10591000Y+706000D02*
X-9956000Y+706000D01*
X-9956000Y+1468000D01*
X-10591000Y+1468000D01*
X-10591000Y+706000D01*
X-10464000Y+706000D02*
X-10464000Y+1468000D01*
X-10677360Y+896500D02*
X-10677360Y+991750D01*
X-10707840Y+944125D02*
X-10646880Y+944125D01*
X-10692600Y+1055250D02*
X-10723080Y+1087000D01*
X-10631640Y+1087000D01*
X-10707840Y+1166375D02*
X-10723080Y+1182250D01*
X-10723080Y+1229875D01*
X-10707840Y+1245750D01*
X-10692600Y+1245750D01*
X-10677360Y+1229875D01*
X-10677360Y+1182250D01*
X-10662120Y+1166375D01*
X-10631640Y+1166375D01*
X-10631640Y+1245750D01*
X-9993000Y+2920000D02*
X-9993827Y+2940483D01*
X-10000545Y+2981450D01*
X-10014563Y+3022417D01*
X-10037341Y+3063384D01*
X-10072141Y+3104229D01*
X-10113108Y+3135845D01*
X-10154075Y+3156392D01*
X-10195042Y+3168629D01*
X-10236009Y+3173762D01*
X-10247000Y+3174000D01*
X-10501000Y+2920000D02*
X-10500173Y+2940483D01*
X-10493455Y+2981450D01*
X-10479437Y+3022417D01*
X-10456659Y+3063384D01*
X-10421859Y+3104229D01*
X-10380892Y+3135845D01*
X-10339925Y+3156392D01*
X-10298958Y+3168629D01*
X-10257991Y+3173762D01*
X-10247000Y+3174000D01*
X-10501000Y+2920000D02*
X-10500173Y+2899517D01*
X-10493455Y+2858550D01*
X-10479437Y+2817583D01*
X-10456659Y+2776616D01*
X-10421859Y+2735771D01*
X-10380892Y+2704155D01*
X-10339925Y+2683608D01*
X-10298958Y+2671371D01*
X-10257991Y+2666238D01*
X-10247000Y+2666000D01*
X-9993000Y+2920000D02*
X-9993827Y+2899517D01*
X-10000545Y+2858550D01*
X-10014563Y+2817583D01*
X-10037341Y+2776616D01*
X-10072141Y+2735771D01*
X-10113108Y+2704155D01*
X-10154075Y+2683608D01*
X-10195042Y+2671371D01*
X-10236009Y+2666238D01*
X-10247000Y+2666000D01*
X-10056500Y+2793000D02*
X-10183500Y+2793000D01*
X-10120000Y+2729500D02*
X-10120000Y+2856500D01*
X-10277830Y+2489160D02*
X-10293705Y+2473920D01*
X-10341330Y+2473920D01*
X-10373080Y+2504400D01*
X-10373080Y+2534880D01*
X-10341330Y+2565360D01*
X-10293705Y+2565360D01*
X-10277830Y+2550120D01*
X-10214330Y+2534880D02*
X-10182580Y+2565360D01*
X-10182580Y+2473920D01*
X-10221000Y+3953000D02*
X-9459000Y+3953000D01*
X-9459000Y+4207000D01*
X-10221000Y+4207000D01*
X-10221000Y+3953000D01*
X-9459000Y+3953000D02*
X-9459000Y+3826000D01*
X-10221000Y+3826000D01*
X-10221000Y+3953000D01*
X-9459000Y+3953000D02*
X-9586000Y+3826000D01*
X-9586000Y+3953000D02*
X-9713000Y+3826000D01*
X-9713000Y+3953000D02*
X-9840000Y+3826000D01*
X-9840000Y+3953000D02*
X-9967000Y+3826000D01*
X-9967000Y+3953000D02*
X-10094000Y+3826000D01*
X-10094000Y+3953000D02*
X-10221000Y+3826000D01*
X-9967000Y+3785360D02*
X-9967000Y+3709160D01*
X-9951125Y+3693920D01*
X-9887625Y+3693920D01*
X-9871750Y+3709160D01*
X-9871750Y+3785360D01*
X-9808250Y+3754880D02*
X-9776500Y+3785360D01*
X-9776500Y+3693920D01*
X-9060000Y+3127000D02*
X-9060000Y+3254000D01*
X-9123500Y+3254000D02*
X-8996500Y+3254000D01*
X-8996500Y+3762000D01*
X-9123500Y+3762000D01*
X-9123500Y+3254000D01*
X-9060000Y+3762000D02*
X-9060000Y+3889000D01*
X-9164140Y+3381000D02*
X-9255580Y+3381000D01*
X-9255580Y+3460375D01*
X-9240340Y+3476250D01*
X-9225100Y+3476250D01*
X-9209860Y+3460375D01*
X-9209860Y+3381000D01*
X-9209860Y+3460375D02*
X-9194620Y+3476250D01*
X-9164140Y+3476250D01*
X-9240340Y+3523875D02*
X-9255580Y+3539750D01*
X-9255580Y+3587375D01*
X-9240340Y+3603250D01*
X-9225100Y+3603250D01*
X-9209860Y+3587375D01*
X-9209860Y+3539750D01*
X-9194620Y+3523875D01*
X-9164140Y+3523875D01*
X-9164140Y+3603250D01*
X-9633000Y+2740000D02*
X-9506000Y+2740000D01*
X-9506000Y+2676500D02*
X-8998000Y+2676500D01*
X-8998000Y+2803500D01*
X-9506000Y+2803500D01*
X-9506000Y+2676500D01*
X-8998000Y+2740000D02*
X-8871000Y+2740000D01*
X-9379000Y+2844140D02*
X-9379000Y+2935580D01*
X-9299625Y+2935580D01*
X-9283750Y+2920340D01*
X-9283750Y+2905100D01*
X-9299625Y+2889860D01*
X-9379000Y+2889860D01*
X-9299625Y+2889860D02*
X-9283750Y+2874620D01*
X-9283750Y+2844140D01*
X-9236125Y+2920340D02*
X-9220250Y+2935580D01*
X-9172625Y+2935580D01*
X-9156750Y+2920340D01*
X-9156750Y+2905100D01*
X-9172625Y+2889860D01*
X-9156750Y+2874620D01*
X-9156750Y+2859380D01*
X-9172625Y+2844140D01*
X-9220250Y+2844140D01*
X-9236125Y+2859380D01*
X-9204375Y+2889860D02*
X-9172625Y+2889860D01*
X-8276000Y+3927000D02*
X-8276827Y+3947483D01*
X-8283545Y+3988450D01*
X-8297563Y+4029417D01*
X-8320341Y+4070384D01*
X-8355141Y+4111229D01*
X-8396108Y+4142845D01*
X-8437075Y+4163392D01*
X-8478042Y+4175629D01*
X-8519009Y+4180762D01*
X-8530000Y+4181000D01*
X-8784000Y+3927000D02*
X-8783173Y+3947483D01*
X-8776455Y+3988450D01*
X-8762437Y+4029417D01*
X-8739659Y+4070384D01*
X-8704859Y+4111229D01*
X-8663892Y+4142845D01*
X-8622925Y+4163392D01*
X-8581958Y+4175629D01*
X-8540991Y+4180762D01*
X-8530000Y+4181000D01*
X-8784000Y+3927000D02*
X-8783173Y+3906517D01*
X-8776455Y+3865550D01*
X-8762437Y+3824583D01*
X-8739659Y+3783616D01*
X-8704859Y+3742771D01*
X-8663892Y+3711155D01*
X-8622925Y+3690608D01*
X-8581958Y+3678371D01*
X-8540991Y+3673238D01*
X-8530000Y+3673000D01*
X-8276000Y+3927000D02*
X-8276827Y+3906517D01*
X-8283545Y+3865550D01*
X-8297563Y+3824583D01*
X-8320341Y+3783616D01*
X-8355141Y+3742771D01*
X-8396108Y+3711155D01*
X-8437075Y+3690608D01*
X-8478042Y+3678371D01*
X-8519009Y+3673238D01*
X-8530000Y+3673000D01*
X-8657000Y+3736500D02*
X-8657000Y+3863500D01*
X-8720500Y+3800000D02*
X-8593500Y+3800000D01*
X-8839880Y+3894330D02*
X-8824640Y+3878455D01*
X-8824640Y+3830830D01*
X-8855120Y+3799080D01*
X-8885600Y+3799080D01*
X-8916080Y+3830830D01*
X-8916080Y+3878455D01*
X-8900840Y+3894330D01*
X-8900840Y+3941955D02*
X-8916080Y+3957830D01*
X-8916080Y+4005455D01*
X-8900840Y+4021330D01*
X-8885600Y+4021330D01*
X-8870360Y+4005455D01*
X-8870360Y+3957830D01*
X-8855120Y+3941955D01*
X-8824640Y+3941955D01*
X-8824640Y+4021330D01*
X-7000000Y+2827000D02*
X-7000000Y+2954000D01*
X-7063500Y+2954000D02*
X-6936500Y+2954000D01*
X-6936500Y+3462000D01*
X-7063500Y+3462000D01*
X-7063500Y+2954000D01*
X-7000000Y+3462000D02*
X-7000000Y+3589000D01*
X-7154140Y+3191000D02*
X-7245580Y+3191000D01*
X-7245580Y+3270375D01*
X-7230340Y+3286250D01*
X-7215100Y+3286250D01*
X-7199860Y+3270375D01*
X-7199860Y+3191000D01*
X-7199860Y+3270375D02*
X-7184620Y+3286250D01*
X-7154140Y+3286250D01*
X-7215100Y+3349750D02*
X-7245580Y+3381500D01*
X-7154140Y+3381500D01*
X-7269000Y+2730000D02*
X-7269827Y+2750483D01*
X-7276545Y+2791450D01*
X-7290563Y+2832417D01*
X-7313341Y+2873384D01*
X-7348141Y+2914229D01*
X-7389108Y+2945845D01*
X-7430075Y+2966392D01*
X-7471042Y+2978629D01*
X-7512009Y+2983762D01*
X-7523000Y+2984000D01*
X-7777000Y+2730000D02*
X-7776173Y+2750483D01*
X-7769455Y+2791450D01*
X-7755437Y+2832417D01*
X-7732659Y+2873384D01*
X-7697859Y+2914229D01*
X-7656892Y+2945845D01*
X-7615925Y+2966392D01*
X-7574958Y+2978629D01*
X-7533991Y+2983762D01*
X-7523000Y+2984000D01*
X-7777000Y+2730000D02*
X-7776173Y+2709517D01*
X-7769455Y+2668550D01*
X-7755437Y+2627583D01*
X-7732659Y+2586616D01*
X-7697859Y+2545771D01*
X-7656892Y+2514155D01*
X-7615925Y+2493608D01*
X-7574958Y+2481371D01*
X-7533991Y+2476238D01*
X-7523000Y+2476000D01*
X-7269000Y+2730000D02*
X-7269827Y+2709517D01*
X-7276545Y+2668550D01*
X-7290563Y+2627583D01*
X-7313341Y+2586616D01*
X-7348141Y+2545771D01*
X-7389108Y+2514155D01*
X-7430075Y+2493608D01*
X-7471042Y+2481371D01*
X-7512009Y+2476238D01*
X-7523000Y+2476000D01*
X-7840500Y+2984000D02*
X-7713500Y+2984000D01*
X-7777000Y+3047500D02*
X-7777000Y+2920500D01*
X-7681750Y+3088140D02*
X-7681750Y+3179580D01*
X-7618250Y+3179580D01*
X-7586500Y+3149100D01*
X-7586500Y+3118620D01*
X-7618250Y+3088140D01*
X-7681750Y+3088140D01*
X-7523000Y+3149100D02*
X-7491250Y+3179580D01*
X-7491250Y+3088140D01*
X-9503000Y+2190000D02*
X-9376000Y+2190000D01*
X-9376000Y+2126500D02*
X-8868000Y+2126500D01*
X-8868000Y+2253500D01*
X-9376000Y+2253500D01*
X-9376000Y+2126500D01*
X-8868000Y+2190000D02*
X-8741000Y+2190000D01*
X-9269000Y+2314140D02*
X-9269000Y+2405580D01*
X-9189625Y+2405580D01*
X-9173750Y+2390340D01*
X-9173750Y+2375100D01*
X-9189625Y+2359860D01*
X-9269000Y+2359860D01*
X-9189625Y+2359860D02*
X-9173750Y+2344620D01*
X-9173750Y+2314140D01*
X-9046750Y+2390340D02*
X-9062625Y+2405580D01*
X-9110250Y+2405580D01*
X-9126125Y+2390340D01*
X-9126125Y+2329380D01*
X-9110250Y+2314140D01*
X-9062625Y+2314140D01*
X-9046750Y+2329380D01*
X-9046750Y+2344620D01*
X-9062625Y+2359860D01*
X-9126125Y+2359860D01*
X-9963000Y-820000D02*
X-9963827Y-799517D01*
X-9970545Y-758550D01*
X-9984563Y-717583D01*
X-10007341Y-676616D01*
X-10042141Y-635771D01*
X-10083108Y-604155D01*
X-10124075Y-583608D01*
X-10165042Y-571371D01*
X-10206009Y-566238D01*
X-10217000Y-566000D01*
X-10471000Y-820000D02*
X-10470173Y-799517D01*
X-10463455Y-758550D01*
X-10449437Y-717583D01*
X-10426659Y-676616D01*
X-10391859Y-635771D01*
X-10350892Y-604155D01*
X-10309925Y-583608D01*
X-10268958Y-571371D01*
X-10227991Y-566238D01*
X-10217000Y-566000D01*
X-10471000Y-820000D02*
X-10470173Y-840483D01*
X-10463455Y-881450D01*
X-10449437Y-922417D01*
X-10426659Y-963384D01*
X-10391859Y-1004229D01*
X-10350892Y-1035845D01*
X-10309925Y-1056392D01*
X-10268958Y-1068629D01*
X-10227991Y-1073762D01*
X-10217000Y-1074000D01*
X-9963000Y-820000D02*
X-9963827Y-840483D01*
X-9970545Y-881450D01*
X-9984563Y-922417D01*
X-10007341Y-963384D01*
X-10042141Y-1004229D01*
X-10083108Y-1035845D01*
X-10124075Y-1056392D01*
X-10165042Y-1068629D01*
X-10206009Y-1073762D01*
X-10217000Y-1074000D01*
X-10026500Y-947000D02*
X-10153500Y-947000D01*
X-10090000Y-1010500D02*
X-10090000Y-883500D01*
X-10247830Y-1210840D02*
X-10263705Y-1226080D01*
X-10311330Y-1226080D01*
X-10343080Y-1195600D01*
X-10343080Y-1165120D01*
X-10311330Y-1134640D01*
X-10263705Y-1134640D01*
X-10247830Y-1149880D01*
X-10184330Y-1180360D02*
X-10200205Y-1165120D01*
X-10200205Y-1149880D01*
X-10184330Y-1134640D01*
X-10136705Y-1134640D01*
X-10120830Y-1149880D01*
X-10120830Y-1165120D01*
X-10136705Y-1180360D01*
X-10184330Y-1180360D01*
X-10200205Y-1195600D01*
X-10200205Y-1210840D01*
X-10184330Y-1226080D01*
X-10136705Y-1226080D01*
X-10120830Y-1210840D01*
X-10120830Y-1195600D01*
X-10136705Y-1180360D01*
X-10101000Y-1717000D02*
X-9339000Y-1717000D01*
X-9339000Y-1463000D01*
X-10101000Y-1463000D01*
X-10101000Y-1717000D01*
X-9339000Y-1717000D02*
X-9339000Y-1844000D01*
X-10101000Y-1844000D01*
X-10101000Y-1717000D01*
X-9339000Y-1717000D02*
X-9466000Y-1844000D01*
X-9466000Y-1717000D02*
X-9593000Y-1844000D01*
X-9593000Y-1717000D02*
X-9720000Y-1844000D01*
X-9720000Y-1717000D02*
X-9847000Y-1844000D01*
X-9847000Y-1717000D02*
X-9974000Y-1844000D01*
X-9974000Y-1717000D02*
X-10101000Y-1844000D01*
X-9887000Y-1884640D02*
X-9887000Y-1960840D01*
X-9871125Y-1976080D01*
X-9807625Y-1976080D01*
X-9791750Y-1960840D01*
X-9791750Y-1884640D01*
X-9744125Y-1899880D02*
X-9728250Y-1884640D01*
X-9680625Y-1884640D01*
X-9664750Y-1899880D01*
X-9664750Y-1915120D01*
X-9680625Y-1930360D01*
X-9728250Y-1930360D01*
X-9744125Y-1945600D01*
X-9744125Y-1976080D01*
X-9664750Y-1976080D01*
X-7820000Y-727000D02*
X-7820000Y-854000D01*
X-7883500Y-1362000D02*
X-7756500Y-1362000D01*
X-7756500Y-854000D01*
X-7883500Y-854000D01*
X-7883500Y-1362000D01*
X-7820000Y-1362000D02*
X-7820000Y-1489000D01*
X-7624420Y-1235000D02*
X-7715860Y-1235000D01*
X-7715860Y-1155625D01*
X-7700620Y-1139750D01*
X-7685380Y-1139750D01*
X-7670140Y-1155625D01*
X-7670140Y-1235000D01*
X-7670140Y-1155625D02*
X-7654900Y-1139750D01*
X-7624420Y-1139750D01*
X-7685380Y-1012750D02*
X-7670140Y-1028625D01*
X-7670140Y-1076250D01*
X-7685380Y-1092125D01*
X-7700620Y-1092125D01*
X-7715860Y-1076250D01*
X-7715860Y-1028625D01*
X-7700620Y-1012750D01*
X-7639660Y-1012750D01*
X-7624420Y-1028625D01*
X-7624420Y-1076250D01*
X-8120000Y-1493000D02*
X-8120000Y-1366000D01*
X-8183500Y-1366000D02*
X-8056500Y-1366000D01*
X-8056500Y-858000D01*
X-8183500Y-858000D01*
X-8183500Y-1366000D01*
X-8120000Y-858000D02*
X-8120000Y-731000D01*
X-8224140Y-1239000D02*
X-8315580Y-1239000D01*
X-8315580Y-1159625D01*
X-8300340Y-1143750D01*
X-8285100Y-1143750D01*
X-8269860Y-1159625D01*
X-8269860Y-1239000D01*
X-8269860Y-1159625D02*
X-8254620Y-1143750D01*
X-8224140Y-1143750D01*
X-8269860Y-1080250D02*
X-8285100Y-1096125D01*
X-8300340Y-1096125D01*
X-8315580Y-1080250D01*
X-8315580Y-1032625D01*
X-8300340Y-1016750D01*
X-8285100Y-1016750D01*
X-8269860Y-1032625D01*
X-8269860Y-1080250D01*
X-8254620Y-1096125D01*
X-8239380Y-1096125D01*
X-8224140Y-1080250D01*
X-8224140Y-1032625D01*
X-8239380Y-1016750D01*
X-8254620Y-1016750D01*
X-8269860Y-1032625D01*
X-8549000Y+270000D02*
X-8549827Y+290483D01*
X-8556545Y+331450D01*
X-8570563Y+372417D01*
X-8593341Y+413384D01*
X-8628141Y+454229D01*
X-8669108Y+485845D01*
X-8710075Y+506392D01*
X-8751042Y+518629D01*
X-8792009Y+523762D01*
X-8803000Y+524000D01*
X-9057000Y+270000D02*
X-9056173Y+290483D01*
X-9049455Y+331450D01*
X-9035437Y+372417D01*
X-9012659Y+413384D01*
X-8977859Y+454229D01*
X-8936892Y+485845D01*
X-8895925Y+506392D01*
X-8854958Y+518629D01*
X-8813991Y+523762D01*
X-8803000Y+524000D01*
X-9057000Y+270000D02*
X-9056173Y+249517D01*
X-9049455Y+208550D01*
X-9035437Y+167583D01*
X-9012659Y+126616D01*
X-8977859Y+85771D01*
X-8936892Y+54155D01*
X-8895925Y+33608D01*
X-8854958Y+21371D01*
X-8813991Y+16238D01*
X-8803000Y+16000D01*
X-8549000Y+270000D02*
X-8549827Y+249517D01*
X-8556545Y+208550D01*
X-8570563Y+167583D01*
X-8593341Y+126616D01*
X-8628141Y+85771D01*
X-8669108Y+54155D01*
X-8710075Y+33608D01*
X-8751042Y+21371D01*
X-8792009Y+16238D01*
X-8803000Y+16000D01*
X-8993500Y+397000D02*
X-8866500Y+397000D01*
X-8930000Y+460500D02*
X-8930000Y+333500D01*
X-8835670Y+579880D02*
X-8851545Y+564640D01*
X-8899170Y+564640D01*
X-8930920Y+595120D01*
X-8930920Y+625600D01*
X-8899170Y+656080D01*
X-8851545Y+656080D01*
X-8835670Y+640840D01*
X-8708670Y+625600D02*
X-8724545Y+610360D01*
X-8772170Y+610360D01*
X-8788045Y+625600D01*
X-8788045Y+640840D01*
X-8772170Y+656080D01*
X-8724545Y+656080D01*
X-8708670Y+640840D01*
X-8708670Y+579880D01*
X-8724545Y+564640D01*
X-8772170Y+564640D01*
X-9323000Y-620000D02*
X-9196000Y-620000D01*
X-9196000Y-683500D02*
X-8688000Y-683500D01*
X-8688000Y-556500D01*
X-9196000Y-556500D01*
X-9196000Y-683500D01*
X-8688000Y-620000D02*
X-8561000Y-620000D01*
X-9069000Y-515860D02*
X-9069000Y-424420D01*
X-8989625Y-424420D01*
X-8973750Y-439660D01*
X-8973750Y-454900D01*
X-8989625Y-470140D01*
X-9069000Y-470140D01*
X-8989625Y-470140D02*
X-8973750Y-485380D01*
X-8973750Y-515860D01*
X-8926125Y-424420D02*
X-8846750Y-424420D01*
X-8846750Y-439660D01*
X-8926125Y-515860D01*
X-9279000Y-110000D02*
X-9279827Y-89517D01*
X-9286545Y-48550D01*
X-9300563Y-7583D01*
X-9323341Y+33384D01*
X-9358141Y+74229D01*
X-9399108Y+105845D01*
X-9440075Y+126392D01*
X-9481042Y+138629D01*
X-9522009Y+143762D01*
X-9533000Y+144000D01*
X-9787000Y-110000D02*
X-9786173Y-89517D01*
X-9779455Y-48550D01*
X-9765437Y-7583D01*
X-9742659Y+33384D01*
X-9707859Y+74229D01*
X-9666892Y+105845D01*
X-9625925Y+126392D01*
X-9584958Y+138629D01*
X-9543991Y+143762D01*
X-9533000Y+144000D01*
X-9787000Y-110000D02*
X-9786173Y-130483D01*
X-9779455Y-171450D01*
X-9765437Y-212417D01*
X-9742659Y-253384D01*
X-9707859Y-294229D01*
X-9666892Y-325845D01*
X-9625925Y-346392D01*
X-9584958Y-358629D01*
X-9543991Y-363762D01*
X-9533000Y-364000D01*
X-9279000Y-110000D02*
X-9279827Y-130483D01*
X-9286545Y-171450D01*
X-9300563Y-212417D01*
X-9323341Y-253384D01*
X-9358141Y-294229D01*
X-9399108Y-325845D01*
X-9440075Y-346392D01*
X-9481042Y-358629D01*
X-9522009Y-363762D01*
X-9533000Y-364000D01*
X-9850500Y+144000D02*
X-9723500Y+144000D01*
X-9787000Y+207500D02*
X-9787000Y+80500D01*
X-9691750Y+248140D02*
X-9691750Y+339580D01*
X-9628250Y+339580D01*
X-9596500Y+309100D01*
X-9596500Y+278620D01*
X-9628250Y+248140D01*
X-9691750Y+248140D01*
X-9548875Y+324340D02*
X-9533000Y+339580D01*
X-9485375Y+339580D01*
X-9469500Y+324340D01*
X-9469500Y+309100D01*
X-9485375Y+293860D01*
X-9533000Y+293860D01*
X-9548875Y+278620D01*
X-9548875Y+248140D01*
X-9469500Y+248140D01*
D21*
X-7740000Y+640000D02*
X-7740815Y+660171D01*
X-7747434Y+700514D01*
X-7761247Y+740857D01*
X-7783693Y+781200D01*
X-7817990Y+821418D01*
X-7858333Y+852518D01*
X-7898676Y+872723D01*
X-7939019Y+884747D01*
X-7979362Y+889774D01*
X-7990000Y+890000D01*
X-8240000Y+640000D02*
X-8239185Y+660171D01*
X-8232566Y+700514D01*
X-8218753Y+740857D01*
X-8196307Y+781200D01*
X-8162010Y+821418D01*
X-8121667Y+852518D01*
X-8081324Y+872723D01*
X-8040981Y+884747D01*
X-8000638Y+889774D01*
X-7990000Y+890000D01*
X-8240000Y+640000D02*
X-8239185Y+619829D01*
X-8232566Y+579486D01*
X-8218753Y+539143D01*
X-8196307Y+498800D01*
X-8162010Y+458582D01*
X-8121667Y+427482D01*
X-8081324Y+407277D01*
X-8040981Y+395253D01*
X-8000638Y+390226D01*
X-7990000Y+390000D01*
X-7740000Y+640000D02*
X-7740815Y+619829D01*
X-7747434Y+579486D01*
X-7761247Y+539143D01*
X-7783693Y+498800D01*
X-7817990Y+458582D01*
X-7858333Y+427482D01*
X-7898676Y+407277D01*
X-7939019Y+395253D01*
X-7979362Y+390226D01*
X-7990000Y+390000D01*
D22*
X-8179000Y+839000D02*
X-8179035Y+839831D01*
X-8179316Y+841495D01*
X-8179906Y+843159D01*
X-8180870Y+844823D01*
X-8182345Y+846464D01*
X-8184009Y+847665D01*
X-8185673Y+848430D01*
X-8187337Y+848861D01*
X-8189000Y+849000D01*
X-8199000Y+839000D02*
X-8198965Y+839831D01*
X-8198684Y+841495D01*
X-8198094Y+843159D01*
X-8197130Y+844823D01*
X-8195655Y+846464D01*
X-8193991Y+847665D01*
X-8192327Y+848430D01*
X-8190663Y+848861D01*
X-8189000Y+849000D01*
X-8199000Y+839000D02*
X-8198965Y+838169D01*
X-8198684Y+836505D01*
X-8198094Y+834841D01*
X-8197130Y+833177D01*
X-8195655Y+831536D01*
X-8193991Y+830335D01*
X-8192327Y+829570D01*
X-8190663Y+829139D01*
X-8189000Y+829000D01*
X-8179000Y+839000D02*
X-8179035Y+838169D01*
X-8179316Y+836505D01*
X-8179906Y+834841D01*
X-8180870Y+833177D01*
X-8182345Y+831536D01*
X-8184009Y+830335D01*
X-8185673Y+829570D01*
X-8187337Y+829139D01*
X-8189000Y+829000D01*
D20*
X-8021750Y+941720D02*
X-8037625Y+926480D01*
X-8085250Y+926480D01*
X-8117000Y+956960D01*
X-8117000Y+987440D01*
X-8085250Y+1017920D01*
X-8037625Y+1017920D01*
X-8021750Y+1002680D01*
X-7974125Y+1002680D02*
X-7958250Y+1017920D01*
X-7910625Y+1017920D01*
X-7894750Y+1002680D01*
X-7894750Y+987440D01*
X-7910625Y+972200D01*
X-7894750Y+956960D01*
X-7894750Y+941720D01*
X-7910625Y+926480D01*
X-7958250Y+926480D01*
X-7974125Y+941720D01*
X-7942375Y+972200D02*
X-7910625Y+972200D01*
X-9498000Y+1675000D02*
X-9371000Y+1675000D01*
X-9371000Y+1611500D02*
X-8863000Y+1611500D01*
X-8863000Y+1738500D01*
X-9371000Y+1738500D01*
X-9371000Y+1611500D01*
X-8863000Y+1675000D02*
X-8736000Y+1675000D01*
X-9244000Y+1779140D02*
X-9244000Y+1870580D01*
X-9164625Y+1870580D01*
X-9148750Y+1855340D01*
X-9148750Y+1840100D01*
X-9164625Y+1824860D01*
X-9244000Y+1824860D01*
X-9164625Y+1824860D02*
X-9148750Y+1809620D01*
X-9148750Y+1779140D01*
X-9021750Y+1809620D02*
X-9117000Y+1809620D01*
X-9053500Y+1870580D01*
X-9053500Y+1779140D01*
X-8042000Y-185000D02*
X-8169000Y-185000D01*
X-8677000Y-248500D02*
X-8169000Y-248500D01*
X-8169000Y-121500D01*
X-8677000Y-121500D01*
X-8677000Y-248500D01*
X-8677000Y-185000D02*
X-8804000Y-185000D01*
X-8590000Y-390580D02*
X-8590000Y-299140D01*
X-8510625Y-299140D01*
X-8494750Y-314380D01*
X-8494750Y-329620D01*
X-8510625Y-344860D01*
X-8590000Y-344860D01*
X-8510625Y-344860D02*
X-8494750Y-360100D01*
X-8494750Y-390580D01*
X-8367750Y-299140D02*
X-8447125Y-299140D01*
X-8447125Y-329620D01*
X-8383625Y-329620D01*
X-8367750Y-344860D01*
X-8367750Y-375340D01*
X-8383625Y-390580D01*
X-8431250Y-390580D01*
X-8447125Y-375340D01*
X-4174000Y-2594000D02*
X-3158000Y-2594000D01*
X-3158000Y-1959000D01*
X-4174000Y-1959000D01*
X-4174000Y-2594000D01*
X-4174000Y-2086000D02*
X-3158000Y-2086000D01*
X-4047000Y-2676920D02*
X-3951750Y-2676920D01*
X-3999375Y-2676920D02*
X-3999375Y-2768360D01*
X-3824750Y-2768360D02*
X-3920000Y-2768360D01*
X-3920000Y-2676920D01*
X-3824750Y-2676920D01*
X-3920000Y-2722640D02*
X-3856500Y-2722640D01*
X-3793000Y-2768360D02*
X-3793000Y-2676920D01*
X-3697750Y-2768360D01*
X-3697750Y-2676920D01*
X-3666000Y-2753120D02*
X-3650125Y-2768360D01*
X-3586625Y-2768360D01*
X-3570750Y-2753120D01*
X-3570750Y-2737880D01*
X-3586625Y-2722640D01*
X-3650125Y-2722640D01*
X-3666000Y-2707400D01*
X-3666000Y-2692160D01*
X-3650125Y-2676920D01*
X-3586625Y-2676920D01*
X-3570750Y-2692160D01*
X-3539000Y-2768360D02*
X-3539000Y-2707400D01*
X-3507250Y-2676920D01*
X-3475500Y-2676920D01*
X-3443750Y-2707400D01*
X-3443750Y-2768360D01*
X-3539000Y-2737880D02*
X-3443750Y-2737880D01*
X-3412000Y-2707400D02*
X-3380250Y-2676920D01*
X-3348500Y-2676920D01*
X-3316750Y-2707400D01*
X-3316750Y-2737880D01*
X-3348500Y-2768360D01*
X-3380250Y-2768360D01*
X-3412000Y-2737880D01*
X-3412000Y-2707400D01*
X-7254000Y-2584000D02*
X-6238000Y-2584000D01*
X-6238000Y-1949000D01*
X-7254000Y-1949000D01*
X-7254000Y-2584000D01*
X-7254000Y-2076000D02*
X-6238000Y-2076000D01*
X-7010000Y-2666920D02*
X-6914750Y-2666920D01*
X-6962375Y-2666920D02*
X-6962375Y-2758360D01*
X-6787750Y-2758360D02*
X-6883000Y-2758360D01*
X-6883000Y-2666920D01*
X-6787750Y-2666920D01*
X-6883000Y-2712640D02*
X-6819500Y-2712640D01*
X-6756000Y-2758360D02*
X-6756000Y-2666920D01*
X-6708375Y-2712640D01*
X-6660750Y-2666920D01*
X-6660750Y-2758360D01*
X-6629000Y-2758360D02*
X-6629000Y-2666920D01*
X-6549625Y-2666920D01*
X-6533750Y-2682160D01*
X-6533750Y-2697400D01*
X-6549625Y-2712640D01*
X-6629000Y-2712640D01*
D17*
X-10860000Y-2890000D02*
X-2850000Y-2890000D01*
X-2850000Y+4760000D01*
X-10860000Y+4760000D01*
X-10860000Y-2890000D01*
M02*
