G04 PROTEUS GERBER X2 FILE*
%TF.GenerationSoftware,Labcenter,Proteus,8.6-SP2-Build23525*%
%TF.CreationDate,2021-11-18T02:18:18+00:00*%
%TF.FileFunction,AssemblyDrawing,Top*%
%TF.FilePolarity,Positive*%
%TF.Part,Single*%
%FSLAX45Y45*%
%MOMM*%
G01*
%TA.AperFunction,Material*%
%ADD20C,0.203200*%
%ADD29C,0.393190*%
%ADD72C,0.391160*%
%ADD73C,0.195580*%
%ADD30C,0.050800*%
%ADD31C,0.191010*%
%ADD32C,0.240790*%
%ADD33C,0.106680*%
%ADD34C,0.197270*%
%ADD35C,0.050000*%
%ADD36C,0.185000*%
%ADD37C,0.148040*%
%ADD38C,0.207260*%
%TA.AperFunction,Profile*%
%ADD17C,0.203200*%
%TD.AperFunction*%
D20*
X-6392160Y+3738840D02*
X-5355840Y+3738840D01*
X-5355840Y+4394160D01*
X-6392160Y+4394160D01*
X-6392160Y+3738840D01*
D29*
X-6031276Y+4184457D02*
X-6031276Y+4066500D01*
X-5913319Y+3948542D01*
X-5795362Y+4066500D01*
X-5795362Y+4184457D01*
D20*
X-8008160Y+3738840D02*
X-7225840Y+3738840D01*
X-7225840Y+4394160D01*
X-8008160Y+4394160D01*
X-8008160Y+3738840D01*
D72*
X-7538768Y+3988268D02*
X-7577884Y+3949152D01*
X-7695232Y+3949152D01*
X-7773464Y+4027384D01*
X-7773464Y+4105616D01*
X-7695232Y+4183848D01*
X-7577884Y+4183848D01*
X-7538768Y+4144732D01*
D20*
X-10601160Y+695840D02*
X-9945840Y+695840D01*
X-9945840Y+1478160D01*
X-10601160Y+1478160D01*
X-10601160Y+695840D01*
D73*
X-10273500Y+852304D02*
X-10273500Y+969652D01*
X-10312616Y+910978D02*
X-10234384Y+910978D01*
X-10293058Y+1047884D02*
X-10332174Y+1087000D01*
X-10214826Y+1087000D01*
X-10312616Y+1184790D02*
X-10332174Y+1204348D01*
X-10332174Y+1263022D01*
X-10312616Y+1282580D01*
X-10293058Y+1282580D01*
X-10273500Y+1263022D01*
X-10273500Y+1204348D01*
X-10253942Y+1184790D01*
X-10214826Y+1184790D01*
X-10214826Y+1282580D01*
D30*
X-9962100Y+2920000D02*
X-9963018Y+2942814D01*
X-9970471Y+2988443D01*
X-9986018Y+3034072D01*
X-10011260Y+3079701D01*
X-10049802Y+3125231D01*
X-10095431Y+3160727D01*
X-10141060Y+3183847D01*
X-10186689Y+3197700D01*
X-10232318Y+3203646D01*
X-10246080Y+3203980D01*
X-10530060Y+2920000D02*
X-10529142Y+2942814D01*
X-10521689Y+2988443D01*
X-10506142Y+3034072D01*
X-10480900Y+3079701D01*
X-10442358Y+3125231D01*
X-10396729Y+3160727D01*
X-10351100Y+3183847D01*
X-10305471Y+3197700D01*
X-10259842Y+3203646D01*
X-10246080Y+3203980D01*
X-10530060Y+2920000D02*
X-10529142Y+2897186D01*
X-10521689Y+2851557D01*
X-10506142Y+2805928D01*
X-10480900Y+2760299D01*
X-10442358Y+2714769D01*
X-10396729Y+2679273D01*
X-10351100Y+2656153D01*
X-10305471Y+2642300D01*
X-10259842Y+2636354D01*
X-10246080Y+2636020D01*
X-9962100Y+2920000D02*
X-9963018Y+2897186D01*
X-9970471Y+2851557D01*
X-9986018Y+2805928D01*
X-10011260Y+2760299D01*
X-10049802Y+2714769D01*
X-10095431Y+2679273D01*
X-10141060Y+2656153D01*
X-10186689Y+2642300D01*
X-10232318Y+2636354D01*
X-10246080Y+2636020D01*
D31*
X-10284283Y+2881797D02*
X-10303384Y+2862696D01*
X-10360688Y+2862696D01*
X-10398890Y+2900899D01*
X-10398890Y+2939101D01*
X-10360688Y+2977304D01*
X-10303384Y+2977304D01*
X-10284283Y+2958203D01*
X-10207878Y+2939101D02*
X-10169675Y+2977304D01*
X-10169675Y+2862696D01*
D20*
X-10231160Y+3815840D02*
X-9448840Y+3815840D01*
X-9448840Y+4217160D01*
X-10231160Y+4217160D01*
X-10231160Y+3815840D01*
D32*
X-10032633Y+4088737D02*
X-10032633Y+3968341D01*
X-10008554Y+3944262D01*
X-9912238Y+3944262D01*
X-9888159Y+3968341D01*
X-9888159Y+4088737D01*
X-9791842Y+4040579D02*
X-9743684Y+4088737D01*
X-9743684Y+3944262D01*
D20*
X-9148900Y+2911100D02*
X-8971100Y+2911100D01*
X-8971100Y+4104900D01*
X-9148900Y+4104900D01*
X-9148900Y+2911100D01*
D33*
X-9027996Y+3422656D02*
X-9092004Y+3422656D01*
X-9092004Y+3475996D01*
X-9081336Y+3486664D01*
X-9070668Y+3486664D01*
X-9060000Y+3475996D01*
X-9060000Y+3422656D01*
X-9060000Y+3475996D02*
X-9049332Y+3486664D01*
X-9027996Y+3486664D01*
X-9081336Y+3518668D02*
X-9092004Y+3529336D01*
X-9092004Y+3561340D01*
X-9081336Y+3572008D01*
X-9070668Y+3572008D01*
X-9060000Y+3561340D01*
X-9060000Y+3529336D01*
X-9049332Y+3518668D01*
X-9027996Y+3518668D01*
X-9027996Y+3572008D01*
D20*
X-9848900Y+2651100D02*
X-8655100Y+2651100D01*
X-8655100Y+2828900D01*
X-9848900Y+2828900D01*
X-9848900Y+2651100D01*
D33*
X-9337344Y+2707996D02*
X-9337344Y+2772004D01*
X-9284004Y+2772004D01*
X-9273336Y+2761336D01*
X-9273336Y+2750668D01*
X-9284004Y+2740000D01*
X-9337344Y+2740000D01*
X-9284004Y+2740000D02*
X-9273336Y+2729332D01*
X-9273336Y+2707996D01*
X-9241332Y+2761336D02*
X-9230664Y+2772004D01*
X-9198660Y+2772004D01*
X-9187992Y+2761336D01*
X-9187992Y+2750668D01*
X-9198660Y+2740000D01*
X-9187992Y+2729332D01*
X-9187992Y+2718664D01*
X-9198660Y+2707996D01*
X-9230664Y+2707996D01*
X-9241332Y+2718664D01*
X-9219996Y+2740000D02*
X-9198660Y+2740000D01*
D30*
X-8246020Y+3926080D02*
X-8246938Y+3948894D01*
X-8254391Y+3994523D01*
X-8269938Y+4040152D01*
X-8295180Y+4085781D01*
X-8333722Y+4131311D01*
X-8379351Y+4166807D01*
X-8424980Y+4189927D01*
X-8470609Y+4203780D01*
X-8516238Y+4209726D01*
X-8530000Y+4210060D01*
X-8813980Y+3926080D02*
X-8813062Y+3948894D01*
X-8805609Y+3994523D01*
X-8790062Y+4040152D01*
X-8764820Y+4085781D01*
X-8726278Y+4131311D01*
X-8680649Y+4166807D01*
X-8635020Y+4189927D01*
X-8589391Y+4203780D01*
X-8543762Y+4209726D01*
X-8530000Y+4210060D01*
X-8813980Y+3926080D02*
X-8813062Y+3903266D01*
X-8805609Y+3857637D01*
X-8790062Y+3812008D01*
X-8764820Y+3766379D01*
X-8726278Y+3720849D01*
X-8680649Y+3685353D01*
X-8635020Y+3662233D01*
X-8589391Y+3648380D01*
X-8543762Y+3642434D01*
X-8530000Y+3642100D01*
X-8246020Y+3926080D02*
X-8246938Y+3903266D01*
X-8254391Y+3857637D01*
X-8269938Y+3812008D01*
X-8295180Y+3766379D01*
X-8333722Y+3720849D01*
X-8379351Y+3685353D01*
X-8424980Y+3662233D01*
X-8470609Y+3648380D01*
X-8516238Y+3642434D01*
X-8530000Y+3642100D01*
D31*
X-8491797Y+3887877D02*
X-8472696Y+3868776D01*
X-8472696Y+3811472D01*
X-8510899Y+3773270D01*
X-8549101Y+3773270D01*
X-8587304Y+3811472D01*
X-8587304Y+3868776D01*
X-8568203Y+3887877D01*
X-8568203Y+3945181D02*
X-8587304Y+3964282D01*
X-8587304Y+4021586D01*
X-8568203Y+4040687D01*
X-8549101Y+4040687D01*
X-8530000Y+4021586D01*
X-8530000Y+3964282D01*
X-8510899Y+3945181D01*
X-8472696Y+3945181D01*
X-8472696Y+4040687D01*
D20*
X-7088900Y+2611100D02*
X-6911100Y+2611100D01*
X-6911100Y+3804900D01*
X-7088900Y+3804900D01*
X-7088900Y+2611100D01*
D33*
X-6967996Y+3122656D02*
X-7032004Y+3122656D01*
X-7032004Y+3175996D01*
X-7021336Y+3186664D01*
X-7010668Y+3186664D01*
X-7000000Y+3175996D01*
X-7000000Y+3122656D01*
X-7000000Y+3175996D02*
X-6989332Y+3186664D01*
X-6967996Y+3186664D01*
X-7010668Y+3229336D02*
X-7032004Y+3250672D01*
X-6967996Y+3250672D01*
D20*
X-7850660Y+2465840D02*
X-7258840Y+2465840D01*
X-7258840Y+3057660D01*
X-7850660Y+3057660D01*
X-7850660Y+2465840D01*
D34*
X-7712568Y+2702568D02*
X-7712568Y+2820932D01*
X-7633659Y+2820932D01*
X-7594205Y+2781477D01*
X-7594205Y+2742023D01*
X-7633659Y+2702568D01*
X-7712568Y+2702568D01*
X-7515296Y+2781477D02*
X-7475841Y+2820932D01*
X-7475841Y+2702568D01*
D20*
X-9718900Y+2101100D02*
X-8525100Y+2101100D01*
X-8525100Y+2278900D01*
X-9718900Y+2278900D01*
X-9718900Y+2101100D01*
D33*
X-9207344Y+2157996D02*
X-9207344Y+2222004D01*
X-9154004Y+2222004D01*
X-9143336Y+2211336D01*
X-9143336Y+2200668D01*
X-9154004Y+2190000D01*
X-9207344Y+2190000D01*
X-9154004Y+2190000D02*
X-9143336Y+2179332D01*
X-9143336Y+2157996D01*
X-9057992Y+2211336D02*
X-9068660Y+2222004D01*
X-9100664Y+2222004D01*
X-9111332Y+2211336D01*
X-9111332Y+2168664D01*
X-9100664Y+2157996D01*
X-9068660Y+2157996D01*
X-9057992Y+2168664D01*
X-9057992Y+2179332D01*
X-9068660Y+2190000D01*
X-9111332Y+2190000D01*
D30*
X-9932100Y-820000D02*
X-9933018Y-797186D01*
X-9940471Y-751557D01*
X-9956018Y-705928D01*
X-9981260Y-660299D01*
X-10019802Y-614769D01*
X-10065431Y-579273D01*
X-10111060Y-556153D01*
X-10156689Y-542300D01*
X-10202318Y-536354D01*
X-10216080Y-536020D01*
X-10500060Y-820000D02*
X-10499142Y-797186D01*
X-10491689Y-751557D01*
X-10476142Y-705928D01*
X-10450900Y-660299D01*
X-10412358Y-614769D01*
X-10366729Y-579273D01*
X-10321100Y-556153D01*
X-10275471Y-542300D01*
X-10229842Y-536354D01*
X-10216080Y-536020D01*
X-10500060Y-820000D02*
X-10499142Y-842814D01*
X-10491689Y-888443D01*
X-10476142Y-934072D01*
X-10450900Y-979701D01*
X-10412358Y-1025231D01*
X-10366729Y-1060727D01*
X-10321100Y-1083847D01*
X-10275471Y-1097700D01*
X-10229842Y-1103646D01*
X-10216080Y-1103980D01*
X-9932100Y-820000D02*
X-9933018Y-842814D01*
X-9940471Y-888443D01*
X-9956018Y-934072D01*
X-9981260Y-979701D01*
X-10019802Y-1025231D01*
X-10065431Y-1060727D01*
X-10111060Y-1083847D01*
X-10156689Y-1097700D01*
X-10202318Y-1103646D01*
X-10216080Y-1103980D01*
D31*
X-10254283Y-858203D02*
X-10273384Y-877304D01*
X-10330688Y-877304D01*
X-10368890Y-839101D01*
X-10368890Y-800899D01*
X-10330688Y-762696D01*
X-10273384Y-762696D01*
X-10254283Y-781797D01*
X-10177878Y-820000D02*
X-10196979Y-800899D01*
X-10196979Y-781797D01*
X-10177878Y-762696D01*
X-10120574Y-762696D01*
X-10101473Y-781797D01*
X-10101473Y-800899D01*
X-10120574Y-820000D01*
X-10177878Y-820000D01*
X-10196979Y-839101D01*
X-10196979Y-858203D01*
X-10177878Y-877304D01*
X-10120574Y-877304D01*
X-10101473Y-858203D01*
X-10101473Y-839101D01*
X-10120574Y-820000D01*
D20*
X-10111160Y-1854160D02*
X-9328840Y-1854160D01*
X-9328840Y-1452840D01*
X-10111160Y-1452840D01*
X-10111160Y-1854160D01*
D32*
X-9912633Y-1581263D02*
X-9912633Y-1701659D01*
X-9888554Y-1725738D01*
X-9792238Y-1725738D01*
X-9768159Y-1701659D01*
X-9768159Y-1581263D01*
X-9695921Y-1605342D02*
X-9671842Y-1581263D01*
X-9599605Y-1581263D01*
X-9575526Y-1605342D01*
X-9575526Y-1629421D01*
X-9599605Y-1653500D01*
X-9671842Y-1653500D01*
X-9695921Y-1677580D01*
X-9695921Y-1725738D01*
X-9575526Y-1725738D01*
D20*
X-7908900Y-1704900D02*
X-7731100Y-1704900D01*
X-7731100Y-511100D01*
X-7908900Y-511100D01*
X-7908900Y-1704900D01*
D33*
X-7787996Y-1193344D02*
X-7852004Y-1193344D01*
X-7852004Y-1140004D01*
X-7841336Y-1129336D01*
X-7830668Y-1129336D01*
X-7820000Y-1140004D01*
X-7820000Y-1193344D01*
X-7820000Y-1140004D02*
X-7809332Y-1129336D01*
X-7787996Y-1129336D01*
X-7830668Y-1043992D02*
X-7820000Y-1054660D01*
X-7820000Y-1086664D01*
X-7830668Y-1097332D01*
X-7841336Y-1097332D01*
X-7852004Y-1086664D01*
X-7852004Y-1054660D01*
X-7841336Y-1043992D01*
X-7798664Y-1043992D01*
X-7787996Y-1054660D01*
X-7787996Y-1086664D01*
D20*
X-8208900Y-1708900D02*
X-8031100Y-1708900D01*
X-8031100Y-515100D01*
X-8208900Y-515100D01*
X-8208900Y-1708900D01*
D33*
X-8087996Y-1197344D02*
X-8152004Y-1197344D01*
X-8152004Y-1144004D01*
X-8141336Y-1133336D01*
X-8130668Y-1133336D01*
X-8120000Y-1144004D01*
X-8120000Y-1197344D01*
X-8120000Y-1144004D02*
X-8109332Y-1133336D01*
X-8087996Y-1133336D01*
X-8120000Y-1090664D02*
X-8130668Y-1101332D01*
X-8141336Y-1101332D01*
X-8152004Y-1090664D01*
X-8152004Y-1058660D01*
X-8141336Y-1047992D01*
X-8130668Y-1047992D01*
X-8120000Y-1058660D01*
X-8120000Y-1090664D01*
X-8109332Y-1101332D01*
X-8098664Y-1101332D01*
X-8087996Y-1090664D01*
X-8087996Y-1058660D01*
X-8098664Y-1047992D01*
X-8109332Y-1047992D01*
X-8120000Y-1058660D01*
D30*
X-8519940Y+270000D02*
X-8520858Y+292814D01*
X-8528311Y+338443D01*
X-8543858Y+384072D01*
X-8569100Y+429701D01*
X-8607642Y+475231D01*
X-8653271Y+510727D01*
X-8698900Y+533847D01*
X-8744529Y+547700D01*
X-8790158Y+553646D01*
X-8803920Y+553980D01*
X-9087900Y+270000D02*
X-9086982Y+292814D01*
X-9079529Y+338443D01*
X-9063982Y+384072D01*
X-9038740Y+429701D01*
X-9000198Y+475231D01*
X-8954569Y+510727D01*
X-8908940Y+533847D01*
X-8863311Y+547700D01*
X-8817682Y+553646D01*
X-8803920Y+553980D01*
X-9087900Y+270000D02*
X-9086982Y+247186D01*
X-9079529Y+201557D01*
X-9063982Y+155928D01*
X-9038740Y+110299D01*
X-9000198Y+64769D01*
X-8954569Y+29273D01*
X-8908940Y+6153D01*
X-8863311Y-7700D01*
X-8817682Y-13646D01*
X-8803920Y-13980D01*
X-8519940Y+270000D02*
X-8520858Y+247186D01*
X-8528311Y+201557D01*
X-8543858Y+155928D01*
X-8569100Y+110299D01*
X-8607642Y+64769D01*
X-8653271Y+29273D01*
X-8698900Y+6153D01*
X-8744529Y-7700D01*
X-8790158Y-13646D01*
X-8803920Y-13980D01*
D31*
X-8842123Y+231797D02*
X-8861224Y+212696D01*
X-8918528Y+212696D01*
X-8956730Y+250899D01*
X-8956730Y+289101D01*
X-8918528Y+327304D01*
X-8861224Y+327304D01*
X-8842123Y+308203D01*
X-8689313Y+289101D02*
X-8708414Y+270000D01*
X-8765718Y+270000D01*
X-8784819Y+289101D01*
X-8784819Y+308203D01*
X-8765718Y+327304D01*
X-8708414Y+327304D01*
X-8689313Y+308203D01*
X-8689313Y+231797D01*
X-8708414Y+212696D01*
X-8765718Y+212696D01*
D20*
X-9538900Y-708900D02*
X-8345100Y-708900D01*
X-8345100Y-531100D01*
X-9538900Y-531100D01*
X-9538900Y-708900D01*
D33*
X-9027344Y-652004D02*
X-9027344Y-587996D01*
X-8974004Y-587996D01*
X-8963336Y-598664D01*
X-8963336Y-609332D01*
X-8974004Y-620000D01*
X-9027344Y-620000D01*
X-8974004Y-620000D02*
X-8963336Y-630668D01*
X-8963336Y-652004D01*
X-8931332Y-587996D02*
X-8877992Y-587996D01*
X-8877992Y-598664D01*
X-8931332Y-652004D01*
D20*
X-9860660Y-374160D02*
X-9268840Y-374160D01*
X-9268840Y+217660D01*
X-9860660Y+217660D01*
X-9860660Y-374160D01*
D34*
X-9722568Y-137432D02*
X-9722568Y-19068D01*
X-9643659Y-19068D01*
X-9604205Y-58523D01*
X-9604205Y-97977D01*
X-9643659Y-137432D01*
X-9722568Y-137432D01*
X-9545023Y-38795D02*
X-9525296Y-19068D01*
X-9466114Y-19068D01*
X-9446387Y-38795D01*
X-9446387Y-58523D01*
X-9466114Y-78250D01*
X-9525296Y-78250D01*
X-9545023Y-97977D01*
X-9545023Y-137432D01*
X-9446387Y-137432D01*
D35*
X-7965000Y+640000D02*
X-7965086Y+642076D01*
X-7965788Y+646229D01*
X-7967258Y+650382D01*
X-7969660Y+654535D01*
X-7973333Y+658634D01*
X-7977486Y+661643D01*
X-7981639Y+663560D01*
X-7985792Y+664643D01*
X-7989945Y+665000D01*
X-7990000Y+665000D01*
X-8015000Y+640000D02*
X-8014914Y+642076D01*
X-8014212Y+646229D01*
X-8012742Y+650382D01*
X-8010340Y+654535D01*
X-8006667Y+658634D01*
X-8002514Y+661643D01*
X-7998361Y+663560D01*
X-7994208Y+664643D01*
X-7990055Y+665000D01*
X-7990000Y+665000D01*
X-8015000Y+640000D02*
X-8014914Y+637924D01*
X-8014212Y+633771D01*
X-8012742Y+629618D01*
X-8010340Y+625465D01*
X-8006667Y+621366D01*
X-8002514Y+618357D01*
X-7998361Y+616440D01*
X-7994208Y+615357D01*
X-7990055Y+615000D01*
X-7990000Y+615000D01*
X-7965000Y+640000D02*
X-7965086Y+637924D01*
X-7965788Y+633771D01*
X-7967258Y+629618D01*
X-7969660Y+625465D01*
X-7973333Y+621366D01*
X-7977486Y+618357D01*
X-7981639Y+616440D01*
X-7985792Y+615357D01*
X-7989945Y+615000D01*
X-7990000Y+615000D01*
X-7955000Y+640000D02*
X-8025000Y+640000D01*
X-7990000Y+675000D02*
X-7990000Y+605000D01*
X-8265000Y+915000D02*
X-8265000Y+640000D01*
X-8259528Y+583772D01*
X-8243784Y+531773D01*
X-8218775Y+485011D01*
X-8185508Y+444492D01*
X-8144990Y+411225D01*
X-8098227Y+386216D01*
X-8046228Y+370472D01*
X-7990000Y+365000D01*
X-7933772Y+370472D01*
X-7881773Y+386216D01*
X-7835010Y+411225D01*
X-7794492Y+444492D01*
X-7761225Y+485011D01*
X-7736216Y+531773D01*
X-7720472Y+583772D01*
X-7715000Y+640000D01*
X-7720472Y+696228D01*
X-7736216Y+748227D01*
X-7761225Y+794989D01*
X-7794492Y+835508D01*
X-7835010Y+868775D01*
X-7881773Y+893784D01*
X-7933772Y+909528D01*
X-7990000Y+915000D01*
X-8265000Y+915000D01*
D36*
X-8027000Y+603000D02*
X-8045500Y+584500D01*
X-8101000Y+584500D01*
X-8138000Y+621500D01*
X-8138000Y+658500D01*
X-8101000Y+695500D01*
X-8045500Y+695500D01*
X-8027000Y+677000D01*
X-7971500Y+677000D02*
X-7953000Y+695500D01*
X-7897500Y+695500D01*
X-7879000Y+677000D01*
X-7879000Y+658500D01*
X-7897500Y+640000D01*
X-7879000Y+621500D01*
X-7879000Y+603000D01*
X-7897500Y+584500D01*
X-7953000Y+584500D01*
X-7971500Y+603000D01*
X-7934500Y+640000D02*
X-7897500Y+640000D01*
D20*
X-9713900Y+1586100D02*
X-8520100Y+1586100D01*
X-8520100Y+1763900D01*
X-9713900Y+1763900D01*
X-9713900Y+1586100D01*
D33*
X-9202344Y+1642996D02*
X-9202344Y+1707004D01*
X-9149004Y+1707004D01*
X-9138336Y+1696336D01*
X-9138336Y+1685668D01*
X-9149004Y+1675000D01*
X-9202344Y+1675000D01*
X-9149004Y+1675000D02*
X-9138336Y+1664332D01*
X-9138336Y+1642996D01*
X-9052992Y+1664332D02*
X-9117000Y+1664332D01*
X-9074328Y+1707004D01*
X-9074328Y+1642996D01*
D20*
X-9019900Y-273900D02*
X-7826100Y-273900D01*
X-7826100Y-96100D01*
X-9019900Y-96100D01*
X-9019900Y-273900D01*
D33*
X-8508344Y-217004D02*
X-8508344Y-152996D01*
X-8455004Y-152996D01*
X-8444336Y-163664D01*
X-8444336Y-174332D01*
X-8455004Y-185000D01*
X-8508344Y-185000D01*
X-8455004Y-185000D02*
X-8444336Y-195668D01*
X-8444336Y-217004D01*
X-8358992Y-152996D02*
X-8412332Y-152996D01*
X-8412332Y-174332D01*
X-8369660Y-174332D01*
X-8358992Y-185000D01*
X-8358992Y-206336D01*
X-8369660Y-217004D01*
X-8401664Y-217004D01*
X-8412332Y-206336D01*
D20*
X-4184160Y-2604160D02*
X-3147840Y-2604160D01*
X-3147840Y-1948840D01*
X-4184160Y-1948840D01*
X-4184160Y-2604160D01*
D37*
X-4021308Y-2232086D02*
X-3932481Y-2232086D01*
X-3976895Y-2232086D02*
X-3976895Y-2320913D01*
X-3814045Y-2320913D02*
X-3902872Y-2320913D01*
X-3902872Y-2232086D01*
X-3814045Y-2232086D01*
X-3902872Y-2276500D02*
X-3843654Y-2276500D01*
X-3784436Y-2320913D02*
X-3784436Y-2232086D01*
X-3695609Y-2320913D01*
X-3695609Y-2232086D01*
X-3666000Y-2306109D02*
X-3651196Y-2320913D01*
X-3591978Y-2320913D01*
X-3577173Y-2306109D01*
X-3577173Y-2291304D01*
X-3591978Y-2276500D01*
X-3651196Y-2276500D01*
X-3666000Y-2261695D01*
X-3666000Y-2246891D01*
X-3651196Y-2232086D01*
X-3591978Y-2232086D01*
X-3577173Y-2246891D01*
X-3547564Y-2320913D02*
X-3547564Y-2261695D01*
X-3517955Y-2232086D01*
X-3488346Y-2232086D01*
X-3458737Y-2261695D01*
X-3458737Y-2320913D01*
X-3547564Y-2291304D02*
X-3458737Y-2291304D01*
X-3429128Y-2261695D02*
X-3399519Y-2232086D01*
X-3369910Y-2232086D01*
X-3340301Y-2261695D01*
X-3340301Y-2291304D01*
X-3369910Y-2320913D01*
X-3399519Y-2320913D01*
X-3429128Y-2291304D01*
X-3429128Y-2261695D01*
D20*
X-7264160Y-2594160D02*
X-6227840Y-2594160D01*
X-6227840Y-1938840D01*
X-7264160Y-1938840D01*
X-7264160Y-2594160D01*
D38*
X-7077622Y-2204321D02*
X-6953264Y-2204321D01*
X-7015443Y-2204321D02*
X-7015443Y-2328680D01*
X-6787453Y-2328680D02*
X-6911811Y-2328680D01*
X-6911811Y-2204321D01*
X-6787453Y-2204321D01*
X-6911811Y-2266500D02*
X-6828906Y-2266500D01*
X-6746000Y-2328680D02*
X-6746000Y-2204321D01*
X-6683821Y-2266500D01*
X-6621642Y-2204321D01*
X-6621642Y-2328680D01*
X-6580189Y-2328680D02*
X-6580189Y-2204321D01*
X-6476558Y-2204321D01*
X-6455831Y-2225048D01*
X-6455831Y-2245774D01*
X-6476558Y-2266500D01*
X-6580189Y-2266500D01*
D17*
X-10860000Y-2890000D02*
X-2850000Y-2890000D01*
X-2850000Y+4760000D01*
X-10860000Y+4760000D01*
X-10860000Y-2890000D01*
M02*
