G04 PROTEUS GERBER X2 FILE*
%TF.GenerationSoftware,Labcenter,Proteus,8.6-SP2-Build23525*%
%TF.CreationDate,2021-11-18T02:18:18+00:00*%
%TF.FileFunction,Copper,L1,Top*%
%TF.FilePolarity,Positive*%
%TF.Part,Single*%
%FSLAX45Y45*%
%MOMM*%
G01*
%TA.AperFunction,WasherPad*%
%ADD10C,1.524000*%
%TA.AperFunction,ViaPad*%
%ADD11C,1.524000*%
%TA.AperFunction,ComponentPad*%
%ADD12C,2.032000*%
%ADD13R,2.032000X2.032000*%
%TA.AperFunction,ComponentPad*%
%ADD14C,1.778000*%
%TA.AperFunction,WasherPad*%
%ADD15R,1.120000X1.120000*%
%TA.AperFunction,ComponentPad*%
%ADD16C,1.120000*%
%TA.AperFunction,Profile*%
%ADD17C,0.203200*%
%TD.AperFunction*%
D10*
X-6000000Y+2930000D03*
X-6000000Y+2676000D03*
X-6000000Y+2422000D03*
X-6000000Y+2168000D03*
X-6000000Y+1914000D03*
X-6000000Y+1660000D03*
X-6000000Y+1406000D03*
X-6000000Y+1152000D03*
X-6000000Y+898000D03*
X-6000000Y+644000D03*
X-6000000Y+390000D03*
X-6000000Y+136000D03*
X-6000000Y-118000D03*
X-6000000Y-372000D03*
X-6000000Y-626000D03*
D11*
X-6000000Y-372000D03*
D10*
X-3470000Y+2940000D03*
X-3470000Y+2686000D03*
X-3470000Y+2432000D03*
X-3470000Y+2178000D03*
X-3470000Y+1924000D03*
X-3470000Y+1670000D03*
X-3470000Y+1416000D03*
X-3470000Y+1162000D03*
X-3470000Y+908000D03*
X-3470000Y+654000D03*
X-3470000Y+400000D03*
X-3470000Y+146000D03*
X-3470000Y-108000D03*
X-3470000Y-362000D03*
X-3470000Y-616000D03*
D12*
X-5620000Y+4130000D03*
X-5874000Y+4130000D03*
X-6128000Y+4130000D03*
X-7490000Y+4130000D03*
X-7744000Y+4130000D03*
X-10210000Y+960000D03*
X-10210000Y+1214000D03*
X-10120000Y+2920000D03*
X-10374000Y+2920000D03*
D13*
X-9586000Y+4080000D03*
X-9840000Y+4080000D03*
X-10094000Y+4080000D03*
D14*
X-9060000Y+3000000D03*
X-9060000Y+4016000D03*
X-9760000Y+2740000D03*
X-8744000Y+2740000D03*
D12*
X-8530000Y+3800000D03*
X-8530000Y+4054000D03*
D14*
X-7000000Y+2700000D03*
X-7000000Y+3716000D03*
D13*
X-7650000Y+2730000D03*
X-7396000Y+2730000D03*
D14*
X-9630000Y+2190000D03*
X-8614000Y+2190000D03*
D12*
X-10090000Y-820000D03*
X-10344000Y-820000D03*
D13*
X-9466000Y-1590000D03*
X-9720000Y-1590000D03*
X-9974000Y-1590000D03*
D14*
X-7820000Y-600000D03*
X-7820000Y-1616000D03*
X-8120000Y-1620000D03*
X-8120000Y-604000D03*
D12*
X-8930000Y+270000D03*
X-8676000Y+270000D03*
D14*
X-9450000Y-620000D03*
X-8434000Y-620000D03*
D13*
X-9660000Y-110000D03*
X-9406000Y-110000D03*
D15*
X-8090000Y+640000D03*
D16*
X-7890000Y+640000D03*
D14*
X-9625000Y+1675000D03*
X-8609000Y+1675000D03*
X-7915000Y-185000D03*
X-8931000Y-185000D03*
D12*
X-3920000Y-2340000D03*
X-3666000Y-2340000D03*
X-3412000Y-2340000D03*
X-7000000Y-2330000D03*
X-6746000Y-2330000D03*
X-6492000Y-2330000D03*
D17*
X-10860000Y-2890000D02*
X-2850000Y-2890000D01*
X-2850000Y+4760000D01*
X-10860000Y+4760000D01*
X-10860000Y-2890000D01*
M02*
